<?xml version="1.0" standalone="no"?>
<!DOCTYPE svg PUBLIC "-//W3C//DTD SVG 20010904//EN"
 "http://www.w3.org/TR/2001/REC-SVG-20010904/DTD/svg10.dtd">
<svg version="1.0" xmlns="http://www.w3.org/2000/svg"
 width="1280.000000pt" height="730.000000pt" viewBox="0 0 1280.000000 730.000000"
 preserveAspectRatio="xMidYMid meet">
<g transform="translate(0.000000,730.000000) scale(0.100000,-0.100000)"
fill="#000000" stroke="none">
<path d="M6179 7296 c-2 -2 -110 -9 -239 -15 -1402 -68 -2630 -358 -3650 -862
-894 -441 -1522 -1002 -1830 -1634 -120 -246 -189 -484 -206 -712 l-7 -93 569
-1 c1338 -2 11789 3 11792 6 7 6 -19 213 -38 306 -50 243 -173 531 -327 764
-349 528 -924 995 -1688 1370 -974 478 -2182 773 -3460 845 -104 6 -257 15
-340 20 -146 10 -567 14 -576 6z"/>
<path d="M1030 3759 c-364 -30 -673 -174 -755 -351 -124 -265 218 -520 761
-568 82 -7 1802 -10 5569 -8 l5450 3 95 26 c290 81 460 242 460 439 0 201
-189 374 -490 446 -72 18 -301 19 -5535 20 -3003 1 -5503 -2 -5555 -7z"/>
<path d="M850 2576 c-462 -160 -739 -323 -823 -485 -33 -65 -33 -79 -3 -140
43 -84 166 -177 304 -229 56 -21 89 -26 203 -30 150 -5 236 6 519 63 386 79
556 99 825 99 360 0 549 -54 1020 -294 327 -167 398 -193 530 -194 128 -1 165
13 298 113 174 130 344 207 590 266 332 80 781 115 1462 115 335 0 444 -12
600 -64 138 -47 209 -84 410 -216 285 -187 394 -227 590 -217 128 6 225 30
379 93 165 68 356 168 624 328 133 79 276 158 317 175 261 109 528 72 987
-139 188 -86 333 -170 582 -333 223 -146 285 -176 366 -177 102 0 162 30 331
166 165 132 309 184 508 184 187 0 331 -39 674 -184 212 -89 298 -117 383
-123 122 -10 202 41 253 160 12 27 21 60 21 73 0 47 -50 180 -95 253 -128 208
-419 485 -761 724 l-82 57 -5443 0 -5444 -1 -125 -43z"/>
<path d="M8904 1779 c-107 -14 -229 -73 -584 -284 -115 -68 -264 -152 -331
-186 -304 -152 -622 -209 -834 -150 -110 31 -255 102 -458 224 -217 132 -333
190 -444 223 l-88 26 -480 -1 c-677 -3 -886 -15 -1160 -68 -234 -45 -492 -147
-645 -255 -139 -97 -177 -119 -239 -138 -236 -73 -504 -6 -910 230 -228 132
-367 182 -601 216 -137 20 -420 15 -620 -11 -146 -19 -479 -74 -670 -112 -163
-33 -350 -36 -469 -10 -41 9 -76 15 -78 14 -6 -7 48 -191 82 -279 229 -592
755 -1038 1380 -1168 223 -47 25 -45 4675 -45 4136 0 4402 1 4517 18 421 60
775 228 1066 507 169 161 279 305 380 497 49 94 54 123 18 123 -44 0 -200 54
-396 138 -242 103 -338 135 -454 152 -169 25 -231 4 -493 -171 -243 -163 -363
-206 -493 -179 -84 17 -278 120 -550 290 -266 166 -441 264 -553 308 -215 85
-395 114 -568 91z"/>
</g>
</svg>
