<svg width="720" height="720" xmlns="http://www.w3.org/2000/svg" xml:space="preserve" overflow="hidden"><defs><clipPath id="a"><path d="M280 0h720v720H280z"/></clipPath></defs><g clip-path="url(#a)" transform="translate(-280)"><path d="M484.24 50.023a17.992 17.992 0 0 0-16.207 17.93v54.069h-53.93a18.108 18.108 0 0 0-1.864 0 17.998 17.998 0 0 0-16.206 17.965V651.93a18.003 18.003 0 0 0 18.07 18.072h379.866a18.01 18.01 0 0 0 12.729-5.31 18.012 18.012 0 0 0 5.236-12.762v-53.929h54.07a18.258 18.258 0 0 0 1.793-.11 17.991 17.991 0 0 0 11.527-5.876 18.02 18.02 0 0 0 4.612-12.089V187.55v.003a18.074 18.074 0 0 0-.354-4.922 18.216 18.216 0 0 0-1.686-4.711l-.18-.354a.526.526 0 0 0-.066-.068 9.5 9.5 0 0 0-.072-.143 18.336 18.336 0 0 0-.81-1.301c-.21-.3-.432-.592-.666-.879a22.363 22.363 0 0 0-.422-.564l-.281-.315a19.213 19.213 0 0 0-.774-.843L760.359 55.187a18.001 18.001 0 0 0-12.621-5.168h-261.63a17.648 17.648 0 0 0-1.863 0Zm19.793 36h225.63v100.194a18.003 18.003 0 0 0 18.07 18.07h100.194v357.678h-52.735a17.762 17.762 0 0 0-2.284 0H504.032v-414.63a18.004 18.004 0 0 0 0-14.695Zm261.63 25.383 56.883 56.883h-56.883Zm-333.63 46.512h36v422.016a18.003 18.003 0 0 0 18.07 18.07h289.794v35.998H432.031Zm128.88 96.714a18.04 18.04 0 0 0-14.205 27.831 18.045 18.045 0 0 0 16.068 8.203h226.548a18.02 18.02 0 0 0 15.603-27.028 18.019 18.019 0 0 0-15.603-9.007H562.776a17.542 17.542 0 0 0-1.863 0Zm0 79.872a18.027 18.027 0 0 0-13.873 27.677 18.028 18.028 0 0 0 15.736 8.323h226.548a18.003 18.003 0 0 0 0-36.001H562.776a17.542 17.542 0 0 0-1.863 0Zm0 79.842a18.038 18.038 0 0 0-15.124 9.817 18.047 18.047 0 0 0 .93 18.01 18.05 18.05 0 0 0 16.057 8.208h226.548a18.019 18.019 0 0 0 15.588-27.023 18.012 18.012 0 0 0-15.588-9.012H562.776a17.542 17.542 0 0 0-1.863 0Z" fill="#001EFF"/></g></svg>